<?xml version="1.0" encoding="UTF-8"?>
<svg id="Calque_1" xmlns="http://www.w3.org/2000/svg" version="1.1" viewBox="0 0 122.9 122.9">
  <!-- Generator: Adobe Illustrator 30.2.0, SVG Export Plug-In . SVG Version: 2.1.1 Build 105)  -->
  <defs>
    <style>
      .st0 {
        fill: #1d1d1b;
      }

      .st1 {
        fill: #fff;
      }
    </style>
  </defs>
  <rect class="st1" width="122.9" height="122.9" rx="25.1" ry="25.1"/>
  <g>
    <path class="st0" d="M54.7,67.6c0,2.4-.3,4.8-.8,6.9-.6,2.2-1.5,4-2.9,5.7-1.4,1.6-3.2,2.9-5.5,3.8s-5.3,1.4-8.8,1.4-6.1-.4-8.4-1.2-4.3-1.7-5.8-2.8l3.7-8.7c1.4.8,2.9,1.5,4.5,2.2,1.6.6,3.3.9,5.2.9,2.7,0,4.7-.7,5.9-2,1.2-1.3,1.8-3.6,1.8-6.8v-32.5h11.2v33.1Z"/>
    <path class="st0" d="M98.9,74.8v9.6h-33.3v-49.9h11.2v40.2h22.1Z"/>
  </g>
</svg>